<svg width="18" height="30" viewBox="0 0 18 30" fill="none" xmlns="http://www.w3.org/2000/svg">
<path d="M8.99513 8.016C8.37646 8.00533 7.78446 8.096 7.21913 8.288C6.65379 8.48 6.18979 8.74133 5.82713 9.072C5.46446 9.40267 5.28313 9.776 5.28313 10.192C5.28313 10.768 5.45379 11.2 5.79513 11.488C6.13646 11.7653 6.58446 11.9627 7.13913 12.08C7.70446 12.1973 8.32313 12.304 8.99513 12.4C10.5311 12.624 11.9445 13.024 13.2351 13.6C14.5258 14.176 15.5605 14.944 16.3391 15.904C17.1178 16.864 17.5071 18.032 17.5071 19.408C17.5071 20.6347 17.1978 21.7333 16.5791 22.704C15.9605 23.664 15.1285 24.4533 14.0831 25.072C13.0378 25.6907 11.8751 26.096 10.5951 26.288V29.584H7.39513V26.288C6.33913 26.1387 5.34713 25.8507 4.41913 25.424C3.49113 24.9867 2.68579 24.432 2.00313 23.76C1.32046 23.0773 0.813792 22.288 0.483125 21.392L4.99513 19.728C5.10179 20.0373 5.33646 20.336 5.69913 20.624C6.07246 20.912 6.54179 21.152 7.10713 21.344C7.67246 21.5253 8.30179 21.616 8.99513 21.616C9.63513 21.616 10.2378 21.5253 10.8031 21.344C11.3685 21.152 11.8271 20.8907 12.1791 20.56C12.5311 20.2293 12.7071 19.8453 12.7071 19.408C12.7071 18.96 12.5205 18.592 12.1471 18.304C11.7845 18.0053 11.3151 17.7707 10.7391 17.6C10.1738 17.4187 9.59246 17.2853 8.99513 17.2C7.37379 16.9653 5.91779 16.5813 4.62713 16.048C3.34713 15.504 2.33379 14.7573 1.58713 13.808C0.851125 12.8587 0.483125 11.6533 0.483125 10.192C0.483125 8.95467 0.792458 7.85067 1.41113 6.88C2.02979 5.90933 2.86179 5.11467 3.90712 4.496C4.95246 3.87733 6.11513 3.472 7.39513 3.28V0.0159988H10.5951V3.28C11.6405 3.42933 12.6271 3.72267 13.5551 4.16C14.4938 4.59733 15.3045 5.16267 15.9871 5.856C16.6805 6.53867 17.1871 7.33333 17.5071 8.24L12.9951 9.872C12.8885 9.56267 12.6485 9.26933 12.2751 8.992C11.9125 8.704 11.4485 8.46933 10.8831 8.288C10.3178 8.10667 9.68846 8.016 8.99513 8.016Z" fill="#FFC900"/>
</svg>
