<svg width="43" height="30" viewBox="0 0 43 30" fill="none" xmlns="http://www.w3.org/2000/svg">
<path d="M3.02521 0H18.1513C18.9536 0 19.7231 0.316071 20.2904 0.87868C20.8577 1.44129 21.1765 2.20435 21.1765 3C21.1765 3.79565 20.8577 4.55871 20.2904 5.12132C19.7231 5.68393 18.9536 6 18.1513 6H3.02521C2.22287 6 1.4534 5.68393 0.886063 5.12132C0.318727 4.55871 0 3.79565 0 3C0 2.20435 0.318727 1.44129 0.886063 0.87868C1.4534 0.316071 2.22287 0 3.02521 0ZM24.2017 24H39.3277C40.1301 24 40.8995 24.3161 41.4669 24.8787C42.0342 25.4413 42.3529 26.2044 42.3529 27C42.3529 27.7956 42.0342 28.5587 41.4669 29.1213C40.8995 29.6839 40.1301 30 39.3277 30H24.2017C23.3993 30 22.6299 29.6839 22.0625 29.1213C21.4952 28.5587 21.1765 27.7956 21.1765 27C21.1765 26.2044 21.4952 25.4413 22.0625 24.8787C22.6299 24.3161 23.3993 24 24.2017 24ZM3.02521 12H39.3277C40.1301 12 40.8995 12.3161 41.4669 12.8787C42.0342 13.4413 42.3529 14.2044 42.3529 15C42.3529 15.7956 42.0342 16.5587 41.4669 17.1213C40.8995 17.6839 40.1301 18 39.3277 18H3.02521C2.22287 18 1.4534 17.6839 0.886063 17.1213C0.318727 16.5587 0 15.7956 0 15C0 14.2044 0.318727 13.4413 0.886063 12.8787C1.4534 12.3161 2.22287 12 3.02521 12Z" fill="url(#paint0_linear_88_1680)"/>
<defs>
<linearGradient id="paint0_linear_88_1680" x1="21.1765" y1="0" x2="21.1765" y2="30" gradientUnits="userSpaceOnUse">
<stop stop-color="#6A00FF"/>
<stop offset="1" stop-color="#FFC900"/>
</linearGradient>
</defs>
</svg>
